<mxfile host="app.diagrams.net" modified="2022-04-03T19:29:10.865Z" agent="5.0 (Windows NT 10.0; Win64; x64) AppleWebKit/537.36 (KHTML, like Gecko) Chrome/100.0.4896.60 Safari/537.36" etag="M9d5bZg_qLffeBo-UvTY" version="17.4.0" type="github" pages="2">
  <diagram id="60xAgpbXq3eeNLBOa_AL" name="Data Flow">
    <mxGraphModel dx="1038" dy="539" grid="1" gridSize="10" guides="1" tooltips="1" connect="1" arrows="1" fold="1" page="1" pageScale="1" pageWidth="850" pageHeight="1100" math="0" shadow="0">
      <root>
        <mxCell id="0" />
        <mxCell id="1" parent="0" />
        <mxCell id="DkN26QqazwEPmU9Qs8vV-55" value="" style="rounded=1;whiteSpace=wrap;html=1;sketch=0;fillColor=#d5e8d4;strokeColor=#82b366;gradientColor=#97D077;" vertex="1" parent="1">
          <mxGeometry x="406" y="580" width="174" height="180" as="geometry" />
        </mxCell>
        <mxCell id="DkN26QqazwEPmU9Qs8vV-30" value="AIDE APIs" style="verticalLabelPosition=top;verticalAlign=bottom;html=1;shape=mxgraph.basic.rect;fillColor2=none;strokeWidth=1;size=20;indent=5;sketch=0;fillColor=#f0a30a;strokeColor=#BD7000;fontColor=#000000;labelPosition=center;align=center;" vertex="1" parent="1">
          <mxGeometry x="180" y="420" width="360" height="24" as="geometry" />
        </mxCell>
        <mxCell id="DkN26QqazwEPmU9Qs8vV-8" value="NAS" style="shape=image;html=1;verticalAlign=top;verticalLabelPosition=bottom;labelBackgroundColor=#ffffff;imageAspect=0;aspect=fixed;image=https://cdn0.iconfinder.com/data/icons/business-collection-2027/59/record-128.png" vertex="1" parent="1">
          <mxGeometry x="450" y="656.1" width="71.8" height="71.8" as="geometry" />
        </mxCell>
        <mxCell id="DkN26QqazwEPmU9Qs8vV-9" value="Peoplesoft&lt;br&gt;File" style="shape=image;html=1;verticalAlign=top;verticalLabelPosition=bottom;labelBackgroundColor=#ffffff;imageAspect=0;aspect=fixed;image=https://cdn3.iconfinder.com/data/icons/geosm-e-commerce/48/file-128.png" vertex="1" parent="1">
          <mxGeometry x="494" y="590" width="36" height="36" as="geometry" />
        </mxCell>
        <mxCell id="DkN26QqazwEPmU9Qs8vV-17" value="AIDE" style="shape=image;html=1;verticalAlign=top;verticalLabelPosition=bottom;labelBackgroundColor=#ffffff;imageAspect=0;aspect=fixed;image=https://cdn4.iconfinder.com/data/icons/essential-3/32/389-Browser_Layout-128.png;imageBackground=#FF9933;" vertex="1" parent="1">
          <mxGeometry x="50" y="540" width="48" height="48" as="geometry" />
        </mxCell>
        <mxCell id="DkN26QqazwEPmU9Qs8vV-18" value="HCP" style="shape=image;html=1;verticalAlign=top;verticalLabelPosition=bottom;labelBackgroundColor=#ffffff;imageAspect=0;aspect=fixed;image=https://cdn4.iconfinder.com/data/icons/essential-3/32/381-Browser-128.png;imageBackground=#9AC7BF;" vertex="1" parent="1">
          <mxGeometry x="50" y="290" width="48" height="48" as="geometry" />
        </mxCell>
        <mxCell id="DkN26QqazwEPmU9Qs8vV-19" value="Enterprise Decomm" style="shape=image;html=1;verticalAlign=top;verticalLabelPosition=bottom;labelBackgroundColor=#ffffff;imageAspect=0;aspect=fixed;image=https://cdn0.iconfinder.com/data/icons/logos-microsoft-office-365/128/Microsoft_Office-09-128.png" vertex="1" parent="1">
          <mxGeometry x="50" y="420" width="48" height="48" as="geometry" />
        </mxCell>
        <mxCell id="DkN26QqazwEPmU9Qs8vV-22" value="InfraRED" style="shape=image;html=1;verticalAlign=top;verticalLabelPosition=bottom;labelBackgroundColor=#ffffff;imageAspect=0;aspect=fixed;image=https://cdn4.iconfinder.com/data/icons/evil-icons-user-interface/64/share-128.png;sketch=0;imageBackground=#FF3333;" vertex="1" parent="1">
          <mxGeometry x="530" y="250" width="53.5" height="53.5" as="geometry" />
        </mxCell>
        <mxCell id="DkN26QqazwEPmU9Qs8vV-27" value="" style="group" vertex="1" connectable="0" parent="1">
          <mxGeometry x="630" y="180" width="90" height="50" as="geometry" />
        </mxCell>
        <mxCell id="DkN26QqazwEPmU9Qs8vV-2" value="" style="shape=datastore;whiteSpace=wrap;html=1;fillColor=#C5FFF5;strokeColor=#82b366;" vertex="1" parent="DkN26QqazwEPmU9Qs8vV-27">
          <mxGeometry width="90" height="50" as="geometry" />
        </mxCell>
        <mxCell id="DkN26QqazwEPmU9Qs8vV-26" value="" style="shape=image;html=1;verticalAlign=top;verticalLabelPosition=bottom;labelBackgroundColor=#ffffff;imageAspect=0;aspect=fixed;image=data:image/svg+xml,PHN2ZyB4bWxucz0iaHR0cDovL3d3dy53My5vcmcvMjAwMC9zdmciIHhtbG5zOmNjPSJodHRwOi8vY3JlYXRpdmVjb21tb25zLm9yZy9ucyMiIHhtbG5zOmRjPSJodHRwOi8vcHVybC5vcmcvZGMvZWxlbWVudHMvMS4xLyIgeG1sbnM6cmRmPSJodHRwOi8vd3d3LnczLm9yZy8xOTk5LzAyLzIyLXJkZi1zeW50YXgtbnMjIiB3aWR0aD0iMTI5LjgiIGhlaWdodD0iMTkuMjUiIGVuYWJsZS1iYWNrZ3JvdW5kPSJuZXcgMCAwIDEzMi41IDIwIiB2ZXJzaW9uPSIxLjEiIHZpZXdCb3g9IjAgMCAxMzAuMyAxOS4yNSIgeG1sOnNwYWNlPSJwcmVzZXJ2ZSI+PHRpdGxlPlNlcnZpY2VOb3cgbG9nbzwvdGl0bGU+PGRlc2M+QSBjbG91ZCBjb21wdXRpbmcgYW5kIGVudGVycHJpc2Ugc29mdHdhcmUgcHJvdmlkZXIgYmFzZWQgaW4gU2FudGEgQ2xhcmEsIENhbGlmb3JuaWEsIFVuaXRlZCBTdGF0ZXM8L2Rlc2M+PGcgY2xpcC1ydWxlPSJldmVub2RkIiBmaWxsLXJ1bGU9ImV2ZW5vZGQiPjxnIGZpbGw9IiMyOTNlNDAiPiYjeGE7PHBhdGggZD0ibTMxLjcgNS44NjJjLTEuNCAwLTIuNiAwLjUtMy42IDEuM3YtMS4xaC0zLjR2MTIuOWgzLjV2LTguMmMwLjUtMC43IDEuNy0xLjYgMy4yLTEuNiAwLjUgMCAxIDAuMSAxLjQgMC4ydi0zLjNjLTAuNC0wLjEtMC44LTAuMi0xLjEtMC4yIi8+JiN4YTs8cGF0aCBkPSJtMS42IDE0Ljk2YzAuOSAwLjggMi4zIDEuMyAzLjUgMS4zIDAuOSAwIDEuNy0wLjUgMS43LTEuMSAwLTItNi4zLTEuMy02LjMtNS40IDAtMi41IDIuNC00IDQuOS00IDEuNyAwIDMuNSAwLjYgNC40IDEuM2wtMS42IDIuNWMtMC43LTAuNC0xLjUtMC45LTIuNS0wLjlzLTEuNyAwLjQtMS43IDEuMWMwIDEuNyA2LjMgMSA2LjMgNS41IDAgMi41LTIuNCA0LTUuMSA0LTEuOCAwLTMuNy0wLjYtNS4yLTEuN3oiLz4mI3hhOzxwYXRoIGQ9Im0yMy4yIDEyLjM2YzAtMy42LTIuNS02LjYtNi4xLTYuNi0zLjggMC02LjMgMy4yLTYuMyA2LjcgMCA0LjEgMi45IDYuNyA2LjcgNi43IDIgMCA0LTAuOCA1LjMtMi4zbC0yLTJjLTAuNiAwLjctMS44IDEuNS0zLjIgMS41LTEuOCAwLTMuMy0xLjMtMy41LTMuMWg4LjljMC4yLTAuMiAwLjItMC41IDAuMi0wLjl6bS04LjgtMS41YzAuMi0xLjIgMS40LTIuMyAyLjgtMi4zczIuNCAxLjEgMi42IDIuM3oiLz4mI3hhOzxwb2x5Z29uIHRyYW5zZm9ybT0idHJhbnNsYXRlKC0uMyAtLjUzNzkpIiBwb2ludHM9IjQ4LjMgNi42IDQyLjQgMTkuNSA0MCAxOS41IDM0LjEgNi42IDM3LjYgNi42IDQxLjIgMTQuNSA0NC43IDYuNiIvPiYjeGE7PHBhdGggZD0ibTUwLjktMC4wMzc4OGMxLjMgMCAyLjMgMSAyLjMgMi4yIDAgMS4zLTEgMi4yLTIuMyAyLjJzLTIuMi0xLTIuMi0yLjJjMC0xLjMgMC45LTIuMiAyLjItMi4yIi8+JiN4YTs8cmVjdCB4PSI0OS4yIiB5PSI2LjA2MiIgd2lkdGg9IjMuNSIgaGVpZ2h0PSIxMi45Ii8+JiN4YTs8cGF0aCBkPSJtNjYuOSAxNi4yNmMtMS41IDItMy40IDIuOS01LjggMi45LTQgMC02LjktMy02LjktNi43IDAtMy44IDMtNi43IDYuOS02LjcgMi4zIDAgNC4yIDEuMSA1LjQgMi42bC0yLjMgMi4xYy0wLjctMC45LTEuNy0xLjUtMi45LTEuNS0yIDAtMy41IDEuNi0zLjUgMy41IDAgMiAxLjQgMy41IDMuNSAzLjUgMS40IDAgMi41LTAuOCAzLjEtMS43eiIvPiYjeGE7PHBhdGggZD0ibTc5LjQgMTYuODZjLTEuMyAxLjUtMy4zIDIuMy01LjMgMi4zLTMuOCAwLTYuNy0yLjYtNi43LTYuNyAwLTMuNiAyLjQtNi43IDYuMy02LjcgMy41IDAgNi4xIDMgNi4xIDYuNiAwIDAuNCAwIDAuNy0wLjEgMWgtOWMwLjIgMS44IDEuNyAzLjEgMy41IDMuMSAxLjQgMCAyLjYtMC44IDMuMi0xLjV6bS0zLjItNmMtMC4xLTEuMS0xLjEtMi4zLTIuNi0yLjMtMS40IDAtMi42IDEuMS0yLjggMi4zeiIvPiYjeGE7PHBhdGggZD0ibTgxLjEgMTguOTZ2LTEyLjloMy4zdjEuMWMxLTAuOCAyLjItMS4zIDMuNi0xLjMgMS44IDAgMy40IDAuOCA0LjUgMi4xIDAuOCAxIDEuNCAyLjMgMS40IDQuNXY2LjZoLTMuNXYtNi45YzAtMS4zLTAuMy0yLTAuOC0yLjQtMC41LTAuNS0xLjEtMC44LTItMC44LTEuNCAwLTIuNiAwLjktMy4yIDEuNnY4LjRoLTMuM3oiLz4mI3hhOzwvZz48cGF0aCBkPSJtMTAyLjggNS43NjJjLTQuMiAwLTcuNSAzLjMtNy41IDcuNSAwIDIuMiAwLjkgNC4yIDIuMyA1LjYgMC41IDAuNSAxLjQgMC41IDIgMC4xIDAuOC0wLjcgMi0xLjEgMy4yLTEuMSAxLjMgMCAyLjMgMC40IDMuMiAxLjEgMC42IDAuNSAxLjQgMC40IDItMC4yIDEuNC0xLjQgMi4zLTMuMyAyLjMtNS41LTAuMS00LjEtMy40LTcuNS03LjUtNy41bS0wLjEgMTEuNGMtMi4zIDAtMy44LTEuNy0zLjgtMy44czEuNS0zLjggMy44LTMuOCAzLjggMS43IDMuOCAzLjgtMS41IDMuOC0zLjggMy44IiBmaWxsPSIjODFiNWExIi8+JiN4YTs8cG9seWdvbiB0cmFuc2Zvcm09InRyYW5zbGF0ZSgtLjMgLS41Mzc5KSIgcG9pbnRzPSIxMDkuNyA2LjYgMTEzLjEgNi42IDExNS45IDE0IDExOC43IDYuNiAxMjEuNiA2LjYgMTI0LjMgMTQgMTI3LjEgNi42IDEzMC42IDYuNiAxMjUuNSAxOS41IDEyMi45IDE5LjUgMTIwLjEgMTIuMiAxMTcuNCAxOS41IDExNC44IDE5LjUiIGZpbGw9IiMyOTNlNDAiLz4mI3hhOzwvZz48L3N2Zz4=;sketch=0;" vertex="1" parent="DkN26QqazwEPmU9Qs8vV-27">
          <mxGeometry x="5" y="24.159999999999997" width="80" height="11.68" as="geometry" />
        </mxCell>
        <mxCell id="DkN26QqazwEPmU9Qs8vV-28" value="" style="group" vertex="1" connectable="0" parent="1">
          <mxGeometry x="550" y="400" width="110" height="81.39999999999998" as="geometry" />
        </mxCell>
        <mxCell id="DkN26QqazwEPmU9Qs8vV-12" value="AIDE datastore" style="aspect=fixed;perimeter=ellipsePerimeter;html=1;align=center;shadow=0;dashed=0;spacingTop=3;image;image=img/lib/active_directory/database.svg;" vertex="1" parent="DkN26QqazwEPmU9Qs8vV-28">
          <mxGeometry width="110" height="81.4" as="geometry" />
        </mxCell>
        <mxCell id="DkN26QqazwEPmU9Qs8vV-13" value="" style="outlineConnect=0;dashed=0;verticalLabelPosition=bottom;verticalAlign=top;align=center;html=1;shape=mxgraph.aws3.redis;fillColor=#2E73B8;gradientColor=none;" vertex="1" parent="DkN26QqazwEPmU9Qs8vV-28">
          <mxGeometry y="52" width="20" height="20" as="geometry" />
        </mxCell>
        <mxCell id="DkN26QqazwEPmU9Qs8vV-32" value="" style="endArrow=classic;html=1;rounded=0;exitX=1;exitY=0;exitDx=0;exitDy=0;" edge="1" parent="1" source="DkN26QqazwEPmU9Qs8vV-9">
          <mxGeometry relative="1" as="geometry">
            <mxPoint x="370" y="420" as="sourcePoint" />
            <mxPoint x="560" y="480" as="targetPoint" />
          </mxGeometry>
        </mxCell>
        <mxCell id="DkN26QqazwEPmU9Qs8vV-33" value="Load" style="edgeLabel;resizable=0;html=1;align=center;verticalAlign=middle;sketch=0;fillColor=#C5FFF5;" connectable="0" vertex="1" parent="DkN26QqazwEPmU9Qs8vV-32">
          <mxGeometry relative="1" as="geometry" />
        </mxCell>
        <mxCell id="DkN26QqazwEPmU9Qs8vV-34" value="People API" style="verticalLabelPosition=bottom;verticalAlign=top;html=1;shape=mxgraph.basic.rect;fillColor2=none;strokeWidth=1;size=20;indent=5;sketch=0;fillColor=#d5e8d4;strokeColor=#82b366;gradientColor=#97d077;" vertex="1" parent="1">
          <mxGeometry x="180" y="446" width="360" height="10" as="geometry" />
        </mxCell>
        <mxCell id="DkN26QqazwEPmU9Qs8vV-1" value="" style="sketch=0;html=1;dashed=0;whitespace=wrap;fillColor=#2875E2;strokeColor=#ffffff;points=[[0.005,0.63,0],[0.1,0.2,0],[0.9,0.2,0],[0.5,0,0],[0.995,0.63,0],[0.72,0.99,0],[0.5,1,0],[0.28,0.99,0]];shape=mxgraph.kubernetes.icon;prIcon=api" vertex="1" parent="1">
          <mxGeometry x="406" y="420" width="80" height="62" as="geometry" />
        </mxCell>
        <mxCell id="DkN26QqazwEPmU9Qs8vV-40" value="" style="endArrow=classic;html=1;rounded=0;strokeColor=#FF9933;strokeWidth=5;exitX=0.354;exitY=0.025;exitDx=0;exitDy=0;exitPerimeter=0;" edge="1" parent="1" source="DkN26QqazwEPmU9Qs8vV-30">
          <mxGeometry width="50" height="50" relative="1" as="geometry">
            <mxPoint x="400" y="340" as="sourcePoint" />
            <mxPoint x="370" y="250" as="targetPoint" />
          </mxGeometry>
        </mxCell>
        <mxCell id="DkN26QqazwEPmU9Qs8vV-10" value="Stream" style="sketch=0;points=[[0,0,0],[0.25,0,0],[0.5,0,0],[0.75,0,0],[1,0,0],[0,1,0],[0.25,1,0],[0.5,1,0],[0.75,1,0],[1,1,0],[0,0.25,0],[0,0.5,0],[0,0.75,0],[1,0.25,0],[1,0.5,0],[1,0.75,0]];outlineConnect=0;fontColor=#232F3E;gradientColor=#945DF2;gradientDirection=north;fillColor=#5A30B5;strokeColor=#ffffff;dashed=0;verticalLabelPosition=bottom;verticalAlign=top;align=center;html=1;fontSize=12;fontStyle=0;aspect=fixed;shape=mxgraph.aws4.resourceIcon;resIcon=mxgraph.aws4.managed_streaming_for_kafka;" vertex="1" parent="1">
          <mxGeometry x="583.5" y="220" width="43.5" height="43.5" as="geometry" />
        </mxCell>
        <mxCell id="DkN26QqazwEPmU9Qs8vV-11" value="InfraRED&lt;br&gt;Postgres" style="sketch=0;outlineConnect=0;fontColor=#232F3E;gradientColor=none;fillColor=#2E27AD;strokeColor=none;dashed=0;verticalLabelPosition=bottom;verticalAlign=top;align=center;html=1;fontSize=12;fontStyle=0;aspect=fixed;pointerEvents=1;shape=mxgraph.aws4.rds_postgresql_instance;" vertex="1" parent="1">
          <mxGeometry x="360" y="170" width="38" height="38" as="geometry" />
        </mxCell>
        <mxCell id="DkN26QqazwEPmU9Qs8vV-41" value="" style="endArrow=classic;html=1;rounded=0;strokeColor=#FF9933;strokeWidth=5;exitX=0.846;exitY=0.025;exitDx=0;exitDy=0;exitPerimeter=0;" edge="1" parent="1" source="DkN26QqazwEPmU9Qs8vV-30">
          <mxGeometry width="50" height="50" relative="1" as="geometry">
            <mxPoint x="435.15000000000003" y="463" as="sourcePoint" />
            <mxPoint x="540" y="330" as="targetPoint" />
          </mxGeometry>
        </mxCell>
        <mxCell id="DkN26QqazwEPmU9Qs8vV-44" value="" style="endArrow=classic;html=1;rounded=0;strokeColor=#FF9933;strokeWidth=5;exitX=0.074;exitY=-0.008;exitDx=0;exitDy=0;exitPerimeter=0;entryX=1;entryY=0.5;entryDx=0;entryDy=0;" edge="1" parent="1" source="DkN26QqazwEPmU9Qs8vV-30" target="DkN26QqazwEPmU9Qs8vV-18">
          <mxGeometry width="50" height="50" relative="1" as="geometry">
            <mxPoint x="149.99999999999994" y="390.6" as="sourcePoint" />
            <mxPoint x="205.44" y="300" as="targetPoint" />
          </mxGeometry>
        </mxCell>
        <mxCell id="DkN26QqazwEPmU9Qs8vV-47" value="" style="endArrow=classic;startArrow=classic;html=1;rounded=0;strokeColor=#FF9933;strokeWidth=5;" edge="1" parent="1">
          <mxGeometry width="50" height="50" relative="1" as="geometry">
            <mxPoint x="110" y="560" as="sourcePoint" />
            <mxPoint x="210" y="460" as="targetPoint" />
          </mxGeometry>
        </mxCell>
        <mxCell id="DkN26QqazwEPmU9Qs8vV-49" value="" style="endArrow=classic;startArrow=classic;html=1;rounded=0;strokeColor=#FF9933;strokeWidth=5;entryX=-0.001;entryY=0.725;entryDx=0;entryDy=0;entryPerimeter=0;" edge="1" parent="1" target="DkN26QqazwEPmU9Qs8vV-30">
          <mxGeometry width="50" height="50" relative="1" as="geometry">
            <mxPoint x="100" y="440" as="sourcePoint" />
            <mxPoint x="220" y="470" as="targetPoint" />
          </mxGeometry>
        </mxCell>
        <mxCell id="DkN26QqazwEPmU9Qs8vV-50" value="" style="endArrow=classic;html=1;rounded=0;strokeColor=#B9E0A5;strokeWidth=5;fillColor=#d5e8d4;" edge="1" parent="1">
          <mxGeometry width="50" height="50" relative="1" as="geometry">
            <mxPoint x="240" y="460" as="sourcePoint" />
            <mxPoint x="120" y="580" as="targetPoint" />
          </mxGeometry>
        </mxCell>
        <mxCell id="DkN26QqazwEPmU9Qs8vV-51" value="App List&lt;br&gt;Report" style="shape=image;html=1;verticalAlign=top;verticalLabelPosition=bottom;labelBackgroundColor=#ffffff;imageAspect=0;aspect=fixed;image=https://cdn1.iconfinder.com/data/icons/CrystalClear/128x128/mimetypes/spreadsheet.png;sketch=0;fillColor=#C5FFF5;imageBackground=#FF9933;" vertex="1" parent="1">
          <mxGeometry x="50" y="650" width="48" height="48" as="geometry" />
        </mxCell>
        <mxCell id="DkN26QqazwEPmU9Qs8vV-53" value="" style="group" vertex="1" connectable="0" parent="1">
          <mxGeometry x="240" y="570" width="70" height="60" as="geometry" />
        </mxCell>
        <mxCell id="DkN26QqazwEPmU9Qs8vV-52" value="" style="shape=datastore;whiteSpace=wrap;html=1;sketch=0;" vertex="1" parent="DkN26QqazwEPmU9Qs8vV-53">
          <mxGeometry width="70" height="60" as="geometry" />
        </mxCell>
        <mxCell id="DkN26QqazwEPmU9Qs8vV-14" value="OT Data Hub" style="shadow=0;dashed=0;html=1;strokeColor=none;fillColor=#EF8F21;labelPosition=center;verticalLabelPosition=bottom;verticalAlign=top;align=center;outlineConnect=0;shape=mxgraph.veeam.reporting;spacingBottom=2;" vertex="1" parent="DkN26QqazwEPmU9Qs8vV-53">
          <mxGeometry x="11.58675799086758" y="5.39999999999996" width="46.82648401826484" height="49.199999999999996" as="geometry" />
        </mxCell>
        <mxCell id="DkN26QqazwEPmU9Qs8vV-56" value="" style="endArrow=classic;html=1;rounded=0;strokeColor=#FF9933;strokeWidth=5;exitX=0.301;exitY=-0.38;exitDx=0;exitDy=0;exitPerimeter=0;" edge="1" parent="1" source="DkN26QqazwEPmU9Qs8vV-34" target="DkN26QqazwEPmU9Qs8vV-14">
          <mxGeometry width="50" height="50" relative="1" as="geometry">
            <mxPoint x="216.6400000000001" y="429.808" as="sourcePoint" />
            <mxPoint x="108" y="324" as="targetPoint" />
          </mxGeometry>
        </mxCell>
        <mxCell id="DkN26QqazwEPmU9Qs8vV-58" value="" style="endArrow=classic;html=1;rounded=0;fontColor=#FFCCFF;strokeColor=#6F0000;strokeWidth=5;exitX=0;exitY=0.5;exitDx=0;exitDy=0;entryX=1;entryY=0.5;entryDx=0;entryDy=0;fillColor=#a20025;" edge="1" parent="1" source="DkN26QqazwEPmU9Qs8vV-52" target="DkN26QqazwEPmU9Qs8vV-51">
          <mxGeometry width="50" height="50" relative="1" as="geometry">
            <mxPoint x="400" y="540" as="sourcePoint" />
            <mxPoint x="450" y="490" as="targetPoint" />
          </mxGeometry>
        </mxCell>
        <mxCell id="DkN26QqazwEPmU9Qs8vV-57" value="&lt;font color=&quot;#ffccff&quot; style=&quot;background-color: rgb(76 , 0 , 153)&quot;&gt;Lisa H DB&lt;/font&gt;" style="shape=datastore;whiteSpace=wrap;html=1;sketch=0;fillColor=#99FFFF;strokeColor=#9673a6;gradientColor=#9933FF;" vertex="1" parent="1">
          <mxGeometry x="130" y="626" width="90" height="50" as="geometry" />
        </mxCell>
        <mxCell id="DkN26QqazwEPmU9Qs8vV-59" value="" style="endArrow=classic;html=1;rounded=0;fontColor=#FFCCFF;strokeColor=#3700CC;strokeWidth=5;fillColor=#6a00ff;" edge="1" parent="1" source="DkN26QqazwEPmU9Qs8vV-11" target="DkN26QqazwEPmU9Qs8vV-25">
          <mxGeometry width="50" height="50" relative="1" as="geometry">
            <mxPoint x="400" y="140" as="sourcePoint" />
            <mxPoint x="450" y="90" as="targetPoint" />
          </mxGeometry>
        </mxCell>
        <mxCell id="DkN26QqazwEPmU9Qs8vV-25" value="Lens" style="shape=image;html=1;verticalAlign=top;verticalLabelPosition=bottom;labelBackgroundColor=#ffffff;imageAspect=0;aspect=fixed;image=https://cdn3.iconfinder.com/data/icons/essential-pack/32/6-Web_Browser-128.png;sketch=0;imageBackground=#FF3333;" vertex="1" parent="1">
          <mxGeometry x="390" y="60" width="51" height="51" as="geometry" />
        </mxCell>
        <mxCell id="DkN26QqazwEPmU9Qs8vV-60" value="CI Central" style="shape=image;html=1;verticalAlign=top;verticalLabelPosition=bottom;labelBackgroundColor=#ffffff;imageAspect=0;aspect=fixed;image=https://cdn4.iconfinder.com/data/icons/essential-3/32/381-Browser-128.png;imageBackground=#FFFFFF;" vertex="1" parent="1">
          <mxGeometry x="575.75" y="56.25" width="58.5" height="58.5" as="geometry" />
        </mxCell>
        <mxCell id="DkN26QqazwEPmU9Qs8vV-65" value="" style="curved=1;endArrow=classic;html=1;rounded=0;fontColor=#000000;strokeColor=#005700;strokeWidth=5;entryX=1;entryY=0.5;entryDx=0;entryDy=0;exitX=0.596;exitY=-0.084;exitDx=0;exitDy=0;exitPerimeter=0;fillColor=#008a00;" edge="1" parent="1" source="DkN26QqazwEPmU9Qs8vV-2" target="DkN26QqazwEPmU9Qs8vV-60">
          <mxGeometry width="50" height="50" relative="1" as="geometry">
            <mxPoint x="400" y="240" as="sourcePoint" />
            <mxPoint x="450" y="190" as="targetPoint" />
            <Array as="points">
              <mxPoint x="740" y="130" />
              <mxPoint x="710" y="80" />
            </Array>
          </mxGeometry>
        </mxCell>
        <mxCell id="DkN26QqazwEPmU9Qs8vV-63" value="" style="shadow=1;strokeWidth=1;rounded=1;absoluteArcSize=1;arcSize=2;labelBackgroundColor=#FFFFFF;sketch=0;fontColor=#000000;" vertex="1" parent="1">
          <mxGeometry x="690" y="100" width="110" height="44" as="geometry" />
        </mxCell>
        <mxCell id="DkN26QqazwEPmU9Qs8vV-64" value="&lt;font style=&quot;&quot;&gt;Scheduled&lt;br&gt;Update&lt;/font&gt;" style="sketch=0;dashed=0;connectable=0;html=1;fillColor=#757575;strokeColor=none;shape=mxgraph.gcp2.scheduled_tasks;part=1;labelPosition=right;verticalLabelPosition=middle;align=left;verticalAlign=middle;spacingLeft=5;fontSize=12;labelBackgroundColor=#FFFFFF;fontColor=#000000;" vertex="1" parent="DkN26QqazwEPmU9Qs8vV-63">
          <mxGeometry y="0.5" width="32" height="32" relative="1" as="geometry">
            <mxPoint x="5" y="-16" as="offset" />
          </mxGeometry>
        </mxCell>
        <mxCell id="DkN26QqazwEPmU9Qs8vV-66" value="" style="curved=1;endArrow=classic;html=1;rounded=0;fontColor=#000000;strokeColor=#005700;strokeWidth=5;fillColor=#008a00;entryX=0;entryY=0.5;entryDx=0;entryDy=0;exitX=0;exitY=0.5;exitDx=0;exitDy=0;" edge="1" parent="1" source="DkN26QqazwEPmU9Qs8vV-60" target="DkN26QqazwEPmU9Qs8vV-2">
          <mxGeometry width="50" height="50" relative="1" as="geometry">
            <mxPoint x="510" y="220" as="sourcePoint" />
            <mxPoint x="530" y="100" as="targetPoint" />
            <Array as="points">
              <mxPoint x="550" y="100" />
              <mxPoint x="550" y="150" />
              <mxPoint x="570" y="190" />
            </Array>
          </mxGeometry>
        </mxCell>
      </root>
    </mxGraphModel>
  </diagram>
  <diagram name="ASK ID" id="r9-5Y1x_lw-8Jtm_aBuO">
    <mxGraphModel dx="1038" dy="539" grid="1" gridSize="10" guides="1" tooltips="1" connect="1" arrows="1" fold="1" page="1" pageScale="1" pageWidth="850" pageHeight="1100" math="0" shadow="0">
      <root>
        <mxCell id="_eudNZIyQ0nw35zxZ0c_-0" />
        <mxCell id="_eudNZIyQ0nw35zxZ0c_-1" parent="_eudNZIyQ0nw35zxZ0c_-0" />
        <mxCell id="_eudNZIyQ0nw35zxZ0c_-3" value="AIDE APIs" style="verticalLabelPosition=top;verticalAlign=bottom;html=1;shape=mxgraph.basic.rect;fillColor2=none;strokeWidth=1;size=20;indent=5;sketch=0;fillColor=#f0a30a;strokeColor=#BD7000;fontColor=#000000;labelPosition=center;align=center;" vertex="1" parent="_eudNZIyQ0nw35zxZ0c_-1">
          <mxGeometry x="180" y="420" width="360" height="24" as="geometry" />
        </mxCell>
        <mxCell id="_eudNZIyQ0nw35zxZ0c_-6" value="AIDE" style="shape=image;html=1;verticalAlign=top;verticalLabelPosition=bottom;labelBackgroundColor=#ffffff;imageAspect=0;aspect=fixed;image=https://cdn4.iconfinder.com/data/icons/essential-3/32/389-Browser_Layout-128.png;imageBackground=#FF9933;" vertex="1" parent="_eudNZIyQ0nw35zxZ0c_-1">
          <mxGeometry x="50" y="540" width="48" height="48" as="geometry" />
        </mxCell>
        <mxCell id="_eudNZIyQ0nw35zxZ0c_-13" value="" style="group" vertex="1" connectable="0" parent="_eudNZIyQ0nw35zxZ0c_-1">
          <mxGeometry x="550" y="400" width="110" height="81.39999999999998" as="geometry" />
        </mxCell>
        <mxCell id="_eudNZIyQ0nw35zxZ0c_-14" value="AIDE datastore" style="aspect=fixed;perimeter=ellipsePerimeter;html=1;align=center;shadow=0;dashed=0;spacingTop=3;image;image=img/lib/active_directory/database.svg;" vertex="1" parent="_eudNZIyQ0nw35zxZ0c_-13">
          <mxGeometry width="110" height="81.4" as="geometry" />
        </mxCell>
        <mxCell id="_eudNZIyQ0nw35zxZ0c_-15" value="" style="outlineConnect=0;dashed=0;verticalLabelPosition=bottom;verticalAlign=top;align=center;html=1;shape=mxgraph.aws3.redis;fillColor=#2E73B8;gradientColor=none;" vertex="1" parent="_eudNZIyQ0nw35zxZ0c_-13">
          <mxGeometry y="52" width="20" height="20" as="geometry" />
        </mxCell>
        <mxCell id="_eudNZIyQ0nw35zxZ0c_-18" value="People API" style="verticalLabelPosition=bottom;verticalAlign=top;html=1;shape=mxgraph.basic.rect;fillColor2=none;strokeWidth=1;size=20;indent=5;sketch=0;fillColor=#d5e8d4;strokeColor=#82b366;gradientColor=#97d077;" vertex="1" parent="_eudNZIyQ0nw35zxZ0c_-1">
          <mxGeometry x="180" y="446" width="360" height="10" as="geometry" />
        </mxCell>
        <mxCell id="_eudNZIyQ0nw35zxZ0c_-19" value="" style="sketch=0;html=1;dashed=0;whitespace=wrap;fillColor=#2875E2;strokeColor=#ffffff;points=[[0.005,0.63,0],[0.1,0.2,0],[0.9,0.2,0],[0.5,0,0],[0.995,0.63,0],[0.72,0.99,0],[0.5,1,0],[0.28,0.99,0]];shape=mxgraph.kubernetes.icon;prIcon=api" vertex="1" parent="_eudNZIyQ0nw35zxZ0c_-1">
          <mxGeometry x="406" y="420" width="80" height="62" as="geometry" />
        </mxCell>
        <mxCell id="_eudNZIyQ0nw35zxZ0c_-25" value="" style="endArrow=classic;startArrow=classic;html=1;rounded=0;strokeColor=#FF9933;strokeWidth=5;" edge="1" parent="_eudNZIyQ0nw35zxZ0c_-1">
          <mxGeometry width="50" height="50" relative="1" as="geometry">
            <mxPoint x="110" y="560" as="sourcePoint" />
            <mxPoint x="210" y="460" as="targetPoint" />
          </mxGeometry>
        </mxCell>
        <mxCell id="_eudNZIyQ0nw35zxZ0c_-27" value="" style="endArrow=classic;html=1;rounded=0;strokeColor=#B9E0A5;strokeWidth=5;fillColor=#d5e8d4;" edge="1" parent="_eudNZIyQ0nw35zxZ0c_-1">
          <mxGeometry width="50" height="50" relative="1" as="geometry">
            <mxPoint x="240" y="460" as="sourcePoint" />
            <mxPoint x="120" y="580" as="targetPoint" />
          </mxGeometry>
        </mxCell>
      </root>
    </mxGraphModel>
  </diagram>
</mxfile>
